<?xml version="1.0" encoding="utf-8"?>
<svg version="1.1" xmlns="http://www.w3.org/2000/svg" viewBox="-16 0 329 444" font-size="28px">
    <polygon fill="#F0F0F0" points="109,31 92,12 104,1 307,1 315,9 289,32"/>
    <polygon fill="#F0F0F0" points="265,201 297,38 319,17 329,28 296,198 277,215"/>
    <polygon fill="#F0F0F0" points="228,408 256,245 273,226.7 288,240 258,415 244,426"/>
    <polygon fill="#F0F0F0" points="23,443 15,436 39,414 219,414 237,432 226,443"/>
    <polygon fill="#F0F0F0" points="0.6,416.8 34,245 53,228 66,243 35,405 10,426"/>
    <polygon fill="#F0F0F0" points="43,199 73,28 84,16 103,36 74,199 55,215"/>
    <polygon fill="#F0F0F0" points="73,237 60,222 76.7,207 140,207 158,220 129,237"/>
    <polygon fill="#F0F0F0" points="190.7,237 172,222 198,207 257,207 269,220 249,237"/>
    <polygon fill="#F0F0F0" points="141,200.7 100,88 107,42 126,63 155,152 161,218"/>
    <polygon fill="#F0F0F0" points="161,150 183,36 216.5,36 194,153 165,209"/>
    <polygon fill="#F0F0F0" points="208,138 257,69 287,43 280,89 202,198 169,216"/>
    <polygon fill="#F0F0F0" points="205,378 175,292 169,226 186.6,241 230,357 224,402"/>
    <polygon fill="#F0F0F0" points="116,406 135,293 163,232 168,285 148,406"/>
    <polygon fill="#F0F0F0" points="51,352 128,243 160,225 125,300 72,374 44,399"/>
    <g id="semicolon" fill="#F0F0F0">
        <circle cx="24" cy="151" r="16"/>
        <circle cx="0" cy="271" r="16"/>
    </g>
    <circle id="dec_dot" fill="#F0F0F0" cx="297" cy="427" r="16"/>
    <text x="196" y="24">A</text>
    <text x="289" y="126">B</text>
    <text x="250" y="338">C</text>
    <text x="118" y="436">D</text>
    <text x="26" y="338">E</text>
    <text x="64" y="126">F</text>
    <text x="97" y="230">G</text>
    <text x="211" y="230">H</text>
    <text x="126" y="151">I</text>
    <text x="170" y="117">J</text>
    <text x="212" y="151">K</text>
    <text x="180" y="303">L</text>
    <text x="135" y="335">M</text>
    <text x="100" y="303">N</text>
</svg>